<svg width="84" height="103" viewBox="0 0 84 103" fill="none" xmlns="http://www.w3.org/2000/svg">
<path d="M34.7776 42.3576C36.4975 41.8517 40.4227 41.3257 42.3651 43.2681C44.793 45.696 46.614 47.5169 48.7385 49.6414C50.4381 51.341 50.6607 55.2055 50.5595 56.9253" stroke="#FF9A5E" stroke-width="4" stroke-linecap="round" stroke-linejoin="round"/>
<path d="M42.4976 68.4459C43.2527 67.6529 44.0078 67.6529 44.763 68.4459C45.0147 68.8423 45.3671 69.7939 44.763 70.4283C44.0078 71.2213 42.8751 70.8248 42.4976 70.4283C42.12 70.0318 41.7424 69.2388 42.4976 68.4459Z" fill="#FF9A5E"/>
<path d="M2 60.5673L40.2406 22.9337C41.5558 21.9221 45.0966 19.5952 46.9175 18.9882C48.7385 18.3813 52.3805 17.1673 56.9329 16.8638L74.8392 17.1673L75.7497 34.7701C75.7497 36.2876 75.4462 40.5365 74.8392 42.661C74.2323 44.7855 73.6253 46.91 72.1078 48.4274L41.4546 80.2946M41.4546 80.2946L50.863 90.0065C55.5166 85.3529 63.6908 76.0455 64.8239 71.7967C66.0378 67.2443 66.6448 61.7813 65.7343 55.0533M41.4546 80.2946L36.8483 75.6883M36.8483 26.2722C32.3497 25.3617 22.5075 25.7086 18.9958 26.8792C14.4434 28.3967 6.55245 36.3887 2 40.84L16.2133 55.0533M16.2133 55.0533L11.4084 59.9603L32.3497 80.2946L36.8483 75.6883M16.2133 55.0533L36.8483 75.6883" stroke="#FF9A5E" stroke-width="4" stroke-linecap="round" stroke-linejoin="round"/>
<path d="M42 2V8.0404M38.9798 4.86124H45.0202" stroke="#FF9A5E" stroke-width="3" stroke-linecap="round" stroke-linejoin="round"/>
<path d="M39.2403 95.2774V101.318M36.2201 98.1386H42.2605" stroke="#FF9A5E" stroke-width="3" stroke-linecap="round" stroke-linejoin="round"/>
<path d="M78.9798 52.2263V58.2667M75.9596 55.0876H82" stroke="#FF9A5E" stroke-width="3" stroke-linecap="round" stroke-linejoin="round"/>
<path d="M14.3337 63.6022C12.3104 65.6255 9.97802 70.0283 9.17426 71.7966C7.65677 75.1351 7.96028 80.598 8.56726 83.633C11.6022 84.24 17.9757 83.633 20.1002 82.7225C21.7997 81.9941 25.5631 79.991 27.9911 77.2595" stroke="#FF9A5E" stroke-width="4.5" stroke-linecap="round" stroke-linejoin="round"/>
<path d="M22.6378 90.3099L26.8868 86.061" stroke="#FF9A5E" stroke-width="4.5" stroke-linecap="round" stroke-linejoin="round"/>
<path d="M18.3889 44.4819L39.9371 66.0302" stroke="#FF9A5E" stroke-width="4" stroke-linecap="round" stroke-linejoin="round"/>
<circle cx="48.4351" cy="43.2679" r="14.2644" stroke="#FF9A5E" stroke-width="4"/>
<circle cx="49.3455" cy="42.3575" r="5.46294" stroke="#FF9A5E" stroke-width="4"/>
</svg>
