<svg width="86" height="89" viewBox="0 0 86 89" fill="none" xmlns="http://www.w3.org/2000/svg">
    <path d="M51.7877 14.142V19.6822M49.0176 16.7663H54.5578" stroke="#FF9A5E" stroke-width="3" stroke-linecap="round" stroke-linejoin="round"/>
    <path d="M24.9851 27.3523V33.5081M22.2149 30.2682H27.7552" stroke="#FF9A5E" stroke-width="3" stroke-linecap="round" stroke-linejoin="round"/>
    <path d="M18.8789 39.3809V44.9211M16.1088 42.0052H21.649" stroke="#FF9A5E" stroke-width="3" stroke-linecap="round" stroke-linejoin="round"/>
    <path d="M65.9461 37.5342V43.0744M63.176 40.1585H68.7162" stroke="#FF9A5E" stroke-width="3" stroke-linecap="round" stroke-linejoin="round"/>
    <path d="M22.4519 88.6274V64.0042M54.5578 88.3197V72.3145L65.7975 72.6223C66.2923 72.6223 67.5788 72.4376 68.7664 71.6989C69.9539 70.9602 70.6466 68.7236 70.8446 67.6976V53.847H76.4854C77.3761 53.847 78.9595 53.5393 79.1574 52.3081C79.3553 51.0769 78.2668 49.538 77.673 48.6146L72.9228 40.612C72.9228 38.7554 73.6724 35.116 71.9039 28M15.1438 21.5C12.8761 25.4851 11.4671 30.3723 11.4671 36.3029C11.4671 42.9532 12.4426 48.2204 13.8595 52.3081M31 8.47263C35.2585 6.83934 39.4417 6.1394 42.6403 6.1394C51.2003 6.1394 62.1782 10.317 67.9388 18.5" stroke="#FF9A5E" stroke-width="4.5" stroke-linejoin="round"/>
    <path d="M30.5501 39.6824C30.5501 36.1544 31.8405 32.9277 33.9751 30.4487M40.3994 26.1917C41.7581 25.7581 43.206 25.524 44.7085 25.524C52.528 25.524 58.8669 31.863 58.8669 39.6824C58.8669 47.5019 52.528 53.8408 44.7085 53.8408C38.8551 53.8408 33.8314 50.2888 31.6751 45.2227" stroke="#FF9A5E" stroke-width="3.5" stroke-linecap="round" stroke-linejoin="round"/>
    <path d="M47.0723 32.2954H42.6401V34.7577V37.2201H37.3215V41.8711H42.6401V47.0694H47.3678V41.8711H52.0955V37.2201H47.0723V32.2954Z" stroke="#FF9A5E" stroke-width="3" stroke-linejoin="round"/>
    <path d="M17.3897 9.26709C17.5488 8.09999 17.6839 6.96155 18.9286 5.57355M18.9286 5.57355C20.0912 4.27716 22.2794 2.68449 24.7767 2.8034C27.5007 2.93312 29.2054 4.15049 30.2238 5.57355C31.1385 6.85184 31.4995 8.29609 31.5481 9.26709C33.3948 9.26709 37.0883 10.4367 37.0883 15.1151C37.0883 19.7935 33.3948 21.3735 31.5481 21.5787H9.69486C6.61687 21.5787 2.00014 21.2906 2 15.1151C1.99989 10.1904 6.92458 8.95926 9.38699 8.95926C9.79739 7.83065 10.9261 6.05234 13.3884 4.95797C15.8507 3.8636 17.6975 4.65018 18.9286 5.57355Z" stroke="#FF9A5E" stroke-width="4" stroke-linecap="round" stroke-linejoin="round"/>
    <path d="M60.9718 24.0162C60.9718 20.8151 64.2549 20.2201 65.8965 20.3227C66.2043 19.3993 66.8198 18.4759 68.3588 17.8603C69.6919 17.3271 71.5393 17.5526 72.3601 17.8603C72.6679 17.2448 73.899 16.0752 76.3614 16.3214C78.8237 16.5676 79.8497 19.0915 80.0549 20.3227C81.1834 20.6305 83.4406 21.8616 83.4406 24.3239C83.4406 26.7863 81.286 28.0175 80.3626 28.0175H64.3575C63.2289 28.0174 60.9718 27.2172 60.9718 24.0162Z" stroke="#FF9A5E" stroke-width="4" stroke-linecap="round" stroke-linejoin="round"/>
    <path d="M4.7453 59.6454C4.7453 56.1893 8.131 55.5415 9.66996 55.6441C9.87515 55.3363 10.3364 53.89 11.5167 53.1818C13.0557 52.2585 14.5946 52.6688 15.518 52.874C16.1336 52.2585 17.0569 51.3351 19.5193 51.3351C22.2894 51.3351 23.418 54.0026 23.5206 55.3364C24.6491 55.2338 26.9063 55.8288 26.9063 59.0298C26.9063 62.2309 25.0595 63.2363 24.1361 63.3389H8.131C6.89984 63.3389 4.7453 62.4156 4.7453 59.6454Z" stroke="#FF9A5E" stroke-width="4" stroke-linecap="round" stroke-linejoin="round"/>
</svg>
