<svg width="111" height="94" viewBox="0 0 111 94" fill="none" xmlns="http://www.w3.org/2000/svg">
<path d="M68.2063 15.4476C69.5938 14.3948 76.8907 14.1635 80.6485 14.1635C79.7813 11.9702 79.0756 8.41916 81.2141 5.3903C83.3821 2.31968 89.6916 0.78158 92.9211 3.16505C97.1251 6.26764 97.1251 12.3769 94.9571 15.4476C93.7815 17.1127 90.6212 18.5502 89.4524 18.5502L91.6203 25.5368L103.761 24.6595C104.628 24.6595 106.449 25.2736 106.796 27.7301C107.143 30.1866 104.917 31.678 103.761 32.1167C98.7024 32.8478 90.7031 34.31 89.4524 34.31C88.4532 34.31 87.0204 33.058 86.7188 32.5873L84.834 34.8975C88.5918 35.4824 94.2959 36.2324 95.9563 37.6744C97.2523 38.8 98.1243 40.3333 98.1243 42.6446L89.4524 61.9457C88.5852 62.5306 86.4172 63.5249 84.6828 62.823C82.9485 62.1212 82.2258 59.8986 82.0813 58.8751L87.5668 45.7152L80.1957 43.9606L69.0735 65.0163C68.3508 65.455 65.6047 66.9464 63.8703 65.8937C62.136 64.8409 61.1367 61.9457 61.7024 60.1911L70.3743 43.0832C69.0735 40.7437 68.2063 36.7665 68.2063 36.0647V34.31L73.2774 23.8141L71.2414 24.6595L62.5696 33.026C61.2688 34.342 58.458 35.7137 56.3767 34.31C54.2955 32.9063 53.9584 29.9554 55.5 28.2007C58.9688 24.2528 66.8188 16.5003 68.2063 15.4476Z" stroke="#FF9A5E" stroke-width="4"/>
<path d="M29.5015 42.8889V48.1412M26.9091 45.3769H32.094" stroke="#FF9A5E" stroke-width="3" stroke-linecap="round" stroke-linejoin="round"/>
<path d="M20.2515 26.7037V31.956M17.6591 29.1917H22.844" stroke="#FF9A5E" stroke-width="3" stroke-linecap="round" stroke-linejoin="round"/>
<path d="M29.5015 17.3334V22.5857M26.9091 19.8213H32.094" stroke="#FF9A5E" stroke-width="3" stroke-linecap="round" stroke-linejoin="round"/>
<path d="M33.0547 68.9962C33.0547 77.5759 26.1875 84.4814 17.7773 84.4814C9.36721 84.4814 2.5 77.5759 2.5 68.9962C2.5 60.4166 9.36721 53.5111 17.7773 53.5111C26.1875 53.5111 33.0547 60.4166 33.0547 68.9962Z" stroke="#FF9A5E" stroke-width="5"/>
<path d="M35.5547 65.0483L63.3047 56.275" stroke="#FF9A5E" stroke-width="4" stroke-linecap="round" stroke-dasharray="9 7"/>
<rect width="10.2546" height="8.73868" rx="4" transform="matrix(0.963064 -0.269272 0.261803 0.965121 35.5547 59.9136)" stroke="#FF9A5E" stroke-width="3"/>
<rect width="10.2567" height="8.73693" rx="4" transform="matrix(0.953756 -0.300583 0.29258 0.956241 48.6812 56.0187)" stroke="#FF9A5E" stroke-width="3"/>
<line y1="-2" x2="105.755" y2="-2" transform="matrix(0.959397 -0.282058 0.276077 0.961135 9.53906 94)" stroke="#FF9A5E" stroke-width="4"/>
<rect width="10.1281" height="5.09268" transform="matrix(0.844204 0.536023 -0.526164 0.850383 64.8992 52.2983)" fill="#FF9A5E"/>
</svg>
